<svg xmlns="http://www.w3.org/2000/svg" width="960" height="1080" viewBox="0 0 960 1080" role="img" aria-labelledby="title description">
<title id="title">一次真实港股分析，看清每一步</title>
<desc id="description">2026-10-05: 4 stocks, 38 subagents, 185 evidence items, 0 failures. Stage times: 118, 190, 16, 52 and 25 seconds. All HOLD; submit=false; no trades.</desc>
<g font-family="Segoe UI, Microsoft YaHei, Noto Sans CJK SC, Arial, sans-serif">
<rect x="0.5" y="0.5" width="959" height="1079" rx="24" fill="#f4f7fc" stroke="#dde5f0"/>
<rect x="24" y="24" width="912" height="1032" rx="20" fill="#ffffff" stroke="#dde5f0"/>
<rect x="48" y="49" width="5" height="52" rx="2" fill="#2563eb" stroke="#2563eb"/>
<text x="68" y="59" font-size="15" fill="#2563eb" font-weight="600" >投资研究 · 已记录轮次</text>
<text x="68" y="98" font-size="32" fill="#16253c" font-weight="700" >一次真实港股分析，看清每一步</text>
<text x="48" y="137" font-size="18" fill="#536580" font-weight="400" >2026-10-05 · hk-manual-20261005-1458</text>
<rect x="48" y="163" width="204" height="98" rx="12" fill="#f5f8fe" stroke="none"/>
<text x="66" y="194" font-size="18" fill="#536580" font-weight="400" >分析标的</text>
<text x="66" y="239" font-size="36" fill="#16253c" font-weight="700" >4</text>
<rect x="268" y="163" width="204" height="98" rx="12" fill="#f5f8fe" stroke="none"/>
<text x="286" y="194" font-size="18" fill="#536580" font-weight="400" >子代理</text>
<text x="286" y="239" font-size="36" fill="#16253c" font-weight="700" >38</text>
<rect x="488" y="163" width="204" height="98" rx="12" fill="#f5f8fe" stroke="none"/>
<text x="506" y="194" font-size="18" fill="#536580" font-weight="400" >引用证据</text>
<text x="506" y="239" font-size="36" fill="#16253c" font-weight="700" >185</text>
<rect x="708" y="163" width="204" height="98" rx="12" fill="#f1faf7" stroke="none"/>
<text x="726" y="194" font-size="18" fill="#536580" font-weight="400" >失败任务</text>
<text x="726" y="239" font-size="36" fill="#146c51" font-weight="700" >0</text>
<rect x="48" y="285" width="864" height="367" rx="16" fill="#ffffff" stroke="#dde5f0"/>
<text x="72" y="324" font-size="25" fill="#16253c" font-weight="700" >五阶段分析耗时</text>
<text x="888" y="324" font-size="18" fill="#2563eb" font-weight="600" text-anchor="end">阶段合计 401 秒</text>
<circle cx="85" cy="366" r="13" fill="#edf3ff"/>
<text x="85" y="372" font-size="17" fill="#2563eb" font-weight="600" text-anchor="middle">1</text>
<text x="109" y="372" font-size="20" fill="#263a56" font-weight="500" >基础研究</text>
<rect x="297" y="351" width="478" height="22" rx="7" fill="#eef3fb" stroke="none"/>
<rect x="297" y="351" width="296.86" height="22" rx="7" fill="#7a9eed" stroke="none"/>
<text x="886" y="372" font-size="22" fill="#263a56" font-weight="600" text-anchor="end">118 s</text>
<circle cx="85" cy="417" r="13" fill="#edf3ff"/>
<text x="85" y="423" font-size="17" fill="#2563eb" font-weight="600" text-anchor="middle">2</text>
<text x="109" y="423" font-size="20" fill="#263a56" font-weight="500" >研究辩论</text>
<rect x="297" y="402" width="478" height="22" rx="7" fill="#eef3fb" stroke="none"/>
<rect x="297" y="402" width="478" height="22" rx="7" fill="#2563eb" stroke="none"/>
<text x="886" y="423" font-size="22" fill="#263a56" font-weight="600" text-anchor="end">190 s</text>
<circle cx="85" cy="468" r="13" fill="#edf3ff"/>
<text x="85" y="474" font-size="17" fill="#2563eb" font-weight="600" text-anchor="middle">3</text>
<text x="109" y="474" font-size="20" fill="#263a56" font-weight="500" >组合草案</text>
<rect x="297" y="453" width="478" height="22" rx="7" fill="#eef3fb" stroke="none"/>
<rect x="297" y="453" width="40.25" height="22" rx="7" fill="#7a9eed" stroke="none"/>
<text x="886" y="474" font-size="22" fill="#263a56" font-weight="600" text-anchor="end">16 s</text>
<circle cx="85" cy="519" r="13" fill="#edf3ff"/>
<text x="85" y="525" font-size="17" fill="#2563eb" font-weight="600" text-anchor="middle">4</text>
<text x="109" y="525" font-size="20" fill="#263a56" font-weight="500" >风险辩论</text>
<rect x="297" y="504" width="478" height="22" rx="7" fill="#eef3fb" stroke="none"/>
<rect x="297" y="504" width="130.82" height="22" rx="7" fill="#7a9eed" stroke="none"/>
<text x="886" y="525" font-size="22" fill="#263a56" font-weight="600" text-anchor="end">52 s</text>
<circle cx="85" cy="570" r="13" fill="#edf3ff"/>
<text x="85" y="576" font-size="17" fill="#2563eb" font-weight="600" text-anchor="middle">5</text>
<text x="109" y="576" font-size="20" fill="#263a56" font-weight="500" >最终决策</text>
<rect x="297" y="555" width="478" height="22" rx="7" fill="#eef3fb" stroke="none"/>
<rect x="297" y="555" width="62.89" height="22" rx="7" fill="#7a9eed" stroke="none"/>
<text x="886" y="576" font-size="22" fill="#263a56" font-weight="600" text-anchor="end">25 s</text>
<text x="72" y="631" font-size="17" fill="#536580" font-weight="400" >耗时为各阶段记录之和，不含启动等额外开销。</text>
<rect x="48" y="672" width="864" height="132" rx="16" fill="#edf3ff" stroke="#d9e5ff"/>
<text x="72" y="706" font-size="18" fill="#3c5682" font-weight="600" >最终结论</text>
<text x="72" y="762" font-size="43" fill="#1d4ed8" font-weight="700" >HOLD</text>
<text x="261" y="718" font-size="24" fill="#16253c" font-weight="700" >4 / 4 标的维持 HOLD</text>
<text x="261" y="751" font-size="20" fill="#3c5682" font-weight="400" >未开新仓 · 未产生交易</text>
<text x="261" y="782" font-size="17" fill="#3c5682" font-weight="400" >submit=false</text>
<text x="888" y="751" font-size="17" fill="#3c5682" font-weight="500" text-anchor="end">等待用户批准</text>
<text x="48" y="850" font-size="25" fill="#16253c" font-weight="700" >每个结论都有具体依据</text>
<rect x="48" y="870" width="424" height="72" rx="10" fill="#f7f9fd" stroke="none"/>
<text x="63" y="899" font-size="22" fill="#16253c" font-weight="700" >00700</text>
<text x="63" y="927" font-size="14" fill="#2563eb" font-weight="600" >HOLD</text>
<text x="160" y="896" font-size="18" fill="#536580" font-weight="400" >弱共识与现金流约束</text>
<text x="160" y="926" font-size="18" fill="#536580" font-weight="400" >多头依据缺乏支撑</text>
<rect x="488" y="870" width="424" height="72" rx="10" fill="#f7f9fd" stroke="none"/>
<text x="503" y="899" font-size="22" fill="#16253c" font-weight="700" >09988</text>
<text x="503" y="927" font-size="14" fill="#2563eb" font-weight="600" >HOLD</text>
<text x="600" y="896" font-size="18" fill="#536580" font-weight="400" >短周期极端超卖</text>
<text x="600" y="926" font-size="18" fill="#536580" font-weight="400" >缺少跨周期反弹证据</text>
<rect x="48" y="950" width="424" height="72" rx="10" fill="#f7f9fd" stroke="none"/>
<text x="63" y="979" font-size="22" fill="#16253c" font-weight="700" >01299</text>
<text x="63" y="1007" font-size="14" fill="#2563eb" font-weight="600" >HOLD</text>
<text x="160" y="976" font-size="18" fill="#536580" font-weight="400" >引擎一手数据偏空</text>
<text x="160" y="1006" font-size="18" fill="#536580" font-weight="400" >多头论据来源被降权</text>
<rect x="488" y="950" width="424" height="72" rx="10" fill="#f7f9fd" stroke="none"/>
<text x="503" y="979" font-size="22" fill="#16253c" font-weight="700" >01888</text>
<text x="503" y="1007" font-size="14" fill="#2563eb" font-weight="600" >HOLD</text>
<text x="600" y="976" font-size="18" fill="#536580" font-weight="400" >30 日区间 97.9% 分位</text>
<text x="600" y="1006" font-size="18" fill="#536580" font-weight="400" >收益风险比仅 0.44</text>
<text x="48" y="1043" font-size="16" fill="#536580" font-weight="400" >2026-10-05 的历史案例 · 模拟交易 · 非收益展示</text>
</g></svg>
